<?xml version="1.0" encoding="utf-8"?>
<!-- Generator: Adobe Illustrator 22.0.1, SVG Export Plug-In . SVG Version: 6.00 Build 0)  -->
<svg version="1.1" id="Layer_4" xmlns="http://www.w3.org/2000/svg" xmlns:xlink="http://www.w3.org/1999/xlink" x="0px" y="0px"
	 viewBox="0 0 24 24" style="enable-background:new 0 0 24 24;" xml:space="preserve">
<style type="text/css">
	.st0{fill:#00A4FF;}
</style>
<g>
	<path class="st0" d="M12,21.1c-5.1,0-9.2-4.1-9.2-9.2v-1.6c0-1.2,1-2.2,2.2-2.2s2.2,1,2.2,2.2v1.6c0,2.6,2.1,4.7,4.7,4.7
		s4.7-2.1,4.7-4.7V8.6c0-0.7-0.6-1.2-1.2-1.2s-1.2,0.6-1.2,1.2v3.3c0,1.2-1,2.2-2.2,2.2c-1.2,0-2.2-1-2.2-2.2V8.6
		c0-3.2,2.6-5.7,5.7-5.7s5.7,2.6,5.7,5.7v3.3C21.2,17,17.1,21.1,12,21.1z"/>
	<circle class="st0" cx="5" cy="5.1" r="2.2"/>
</g>
</svg>
